<svg width="244.019379" height="237.012177" viewBox="0 0 244.019 237.012" fill="none" xmlns="http://www.w3.org/2000/svg" xmlns:xlink="http://www.w3.org/1999/xlink">
	<desc>
			Created with Pixso.
	</desc>
	<defs/>
	<path id="椭圆 1" d="M120.2 94.16C134.71 95.97 129.27 107.68 138.34 118.49C147.4 129.29 145.59 146.41 121.11 150.01C96.62 153.61 89.37 132.9 98.44 118.49C107.5 104.07 105.69 92.36 120.2 94.16L120.2 94.16Z" stroke="#FFEBA4" stroke-opacity="1.000000" stroke-width="1.000000"/>
	<path id="椭圆 2" d="M123.83 82.45C160.71 84.48 143.2 101.15 149.38 116.57C155.56 132 163.05 154.28 124.73 159.92C86.42 165.56 68.4 139.5 86.95 116.57C105.5 93.64 86.95 80.43 123.83 82.45L123.83 82.45Z" stroke="#FFEBA4" stroke-opacity="1.000000" stroke-width="1.000000"/>
	<path id="椭圆 3" d="M112.95 70.74C157.21 64.18 156.47 95.97 165.54 114.88C174.6 133.8 175.71 163.38 126.08 170.63C76.45 177.88 54.45 143.45 77.13 114.88C99.81 86.31 68.69 77.31 112.95 70.74L112.95 70.74Z" stroke="#FFEBA4" stroke-opacity="1.000000" stroke-width="1.000000"/>
	<path id="椭圆 4" d="M111.28 55.29C162.94 37.46 166.12 87.71 177.54 112.02C188.97 136.33 190.36 174.36 127.83 183.67C65.29 192.99 37.64 145.24 66.15 112.02C94.66 78.8 59.62 73.11 111.28 55.29L111.28 55.29Z" stroke="#FFEBA4" stroke-opacity="1.000000" stroke-width="1.000000"/>
	<path id="椭圆 5" d="M107.89 44.57C169.73 23.38 173.54 83.13 187.22 112.04C200.9 140.95 202.56 186.17 127.7 197.25C52.83 208.32 19.72 151.55 53.85 112.04C87.99 72.53 46.04 65.77 107.89 44.57L107.89 44.57Z" stroke="#FFEBA4" stroke-opacity="1.000000" stroke-width="1.000000"/>
	<path id="椭圆 6" d="M106.31 32.67C178.34 8.1 182.77 77.36 198.7 110.87C214.64 144.38 216.57 196.8 129.38 209.63C42.18 222.47 -1.08 165.05 38.68 119.26C78.43 73.47 34.28 57.24 106.31 32.67L106.31 32.67Z" stroke="#FFEBA4" stroke-opacity="1.000000" stroke-width="1.000000"/>
	<path id="椭圆 7" d="M100.53 24.22C166.09 -5.19 198.61 68.75 216.31 105.87C234.01 143 223.05 206.04 126.17 220.27C29.28 234.49 -4.02 162.62 22.28 129.29C48.57 95.97 34.97 53.63 100.53 24.22L100.53 24.22Z" stroke="#FFEBA4" stroke-opacity="1.000000" stroke-width="1.000000"/>
	<path id="椭圆 8" d="M101.23 8.27C177.2 -25.64 214.88 59.62 235.4 102.44C255.91 145.25 243.2 217.96 130.93 234.36C18.67 250.77 -19.92 167.88 10.55 129.45C41.02 91.01 25.26 42.19 101.23 8.27L101.23 8.27Z" stroke="#FFEBA4" stroke-opacity="1.000000" stroke-width="1.000000"/>
</svg>
