<svg width="342.429657" height="408.767456" viewBox="0 0 342.43 408.767" fill="none" xmlns="http://www.w3.org/2000/svg" xmlns:xlink="http://www.w3.org/1999/xlink">
	<desc>
			Created with Pixso.
	</desc>
	<defs>
		<clipPath id="clip216_7">
			<rect id="svg" width="342.429657" height="408.767456" fill="white" fill-opacity="0"/>
		</clipPath>
	</defs>
	<g clip-path="url(#clip216_7)">
		<path id="矢量 1" d="" fill="#000000" fill-opacity="0" fill-rule="nonzero"/>
		<path id="矢量 1" d="M0.94 181.37C7.6 201.2 33.22 243.33 81.93 254.87C138.94 268.37 140.94 363.87 52.93 407.87" stroke="#FFFFFF" stroke-opacity="1.000000" stroke-width="1.999998"/>
		<path id="矢量 2" d="" fill="#000000" fill-opacity="0" fill-rule="nonzero"/>
		<path id="矢量 2" d="M73.93 0.87C29.94 50.37 -15.57 162.44 154.94 212.87C261.44 244.37 250.44 354.37 237.44 406.87" stroke="#FFFFFF" stroke-opacity="1.000000" stroke-width="1.999998"/>
		<path id="矢量 3" d="" fill="#000000" fill-opacity="0" fill-rule="nonzero"/>
		<path id="矢量 3" d="M131.44 0.87C92.43 45.37 65.93 143.37 200.44 201.87C334.94 260.37 330.94 342.37 332.94 364.37" stroke="#FFFFFF" stroke-opacity="1.000000" stroke-width="1.999998"/>
		<path id="矢量 4" d="" fill="#000000" fill-opacity="0" fill-rule="nonzero"/>
		<path id="矢量 4" d="M214.44 4.87C165.44 15.87 118.94 113.87 223.94 124.37C313.31 133.31 332.94 179.87 341.44 222.87" stroke="#FFFFFF" stroke-opacity="1.000000" stroke-width="1.999998"/>
		<path id="矢量 5" d="" fill="#000000" fill-opacity="0" fill-rule="nonzero"/>
		<path id="矢量 5" d="M267.94 0.87C212.44 31.87 228.94 142.87 333.94 78.87" stroke="#FFFFFF" stroke-opacity="1.000000" stroke-width="1.999998"/>
	</g>
</svg>
